<svg width="42" height="50" viewBox="0 0 42 50" fill="none" xmlns="http://www.w3.org/2000/svg">
<path fill-rule="evenodd" clip-rule="evenodd" d="M20.3325 1.89776C20.3324 1.89785 20.3327 1.89767 20.3325 1.89776L12.3337 5.89721L12.3325 5.89776C11.8229 6.15102 11.5005 6.67089 11.5 7.24V16.7635C11.4961 17.3334 11.8154 17.8563 12.3242 18.113C12.3239 18.1129 12.3245 18.1132 12.3242 18.113L20.3237 22.1128C20.7462 22.3242 21.2438 22.3243 21.6663 22.1129L29.6664 18.1128L29.6675 18.1122C30.1773 17.8589 30.4997 17.3389 30.5 16.7697V7.24026C30.4997 6.67105 30.1773 6.15106 29.6675 5.89776L29.6664 5.89721L21.6675 1.89776C21.6674 1.89767 21.6677 1.89786 21.6675 1.89776C21.2474 1.6892 20.7527 1.68919 20.3325 1.89776ZM19.8875 1.00223C20.5883 0.654 21.4118 0.654 22.1125 1.00223L22.1137 1.00278L30.1125 5.00223C30.1124 5.00215 30.1127 5.00231 30.1125 5.00223C30.9618 5.42448 31.4995 6.29123 31.5 7.23973V16.77C31.4995 17.7184 30.9624 18.5852 30.1132 19.0074C30.113 19.0075 30.1134 19.0073 30.1132 19.0074L22.1138 23.0071C22.1138 23.0072 22.1138 23.0071 22.1138 23.0071C21.4097 23.3594 20.5806 23.3595 19.8764 23.0072C19.8764 23.0072 19.8765 23.0072 19.8764 23.0072L11.8764 19.0072L11.8751 19.0065C11.0268 18.5791 10.4941 17.708 10.5 16.7584V7.24C10.5006 6.29154 11.0377 5.4248 11.8869 5.00253C11.8867 5.00263 11.8871 5.00243 11.8869 5.00253L19.8864 1.00278L19.8875 1.00223Z" fill="#414141"/>
<path fill-rule="evenodd" clip-rule="evenodd" d="M10.8727 5.93638C10.9962 5.6894 11.2966 5.58928 11.5435 5.71278L20.9999 10.441L30.4563 5.71278C30.7033 5.58928 31.0037 5.6894 31.1271 5.93638C31.2506 6.18337 31.1505 6.48371 30.9035 6.6072L21.2235 11.4472C21.0828 11.5176 20.9171 11.5176 20.7763 11.4472L11.0963 6.6072C10.8493 6.48371 10.7492 6.18337 10.8727 5.93638Z" fill="#414141"/>
<path fill-rule="evenodd" clip-rule="evenodd" d="M21 10.5C21.2761 10.5 21.5 10.7239 21.5 11V22.76C21.5 23.0361 21.2761 23.26 21 23.26C20.7239 23.26 20.5 23.0361 20.5 22.76V11C20.5 10.7239 20.7239 10.5 21 10.5Z" fill="#414141"/>
<path fill-rule="evenodd" clip-rule="evenodd" d="M15.5529 3.27638C15.6764 3.02939 15.9767 2.92928 16.2237 3.05277L26.2237 8.05277C26.4707 8.17627 26.5708 8.4766 26.4473 8.72359C26.3238 8.97058 26.0235 9.0707 25.7765 8.9472L15.7765 3.9472C15.5295 3.82371 15.4294 3.52337 15.5529 3.27638Z" fill="#414141"/>
<path d="M3.69319 45.12C3.06119 45.12 2.51719 45.028 2.06119 44.844C1.61319 44.652 1.26519 44.396 1.01719 44.076C0.769188 43.748 0.625188 43.384 0.585188 42.984V42.96C0.585188 42.896 0.609188 42.848 0.657188 42.816C0.705188 42.776 0.765188 42.756 0.837188 42.756H1.43719C1.52519 42.756 1.59719 42.776 1.65319 42.816C1.70919 42.848 1.74919 42.912 1.77319 43.008C1.86919 43.344 2.08119 43.612 2.40919 43.812C2.73719 44.004 3.16119 44.1 3.68119 44.1C4.25719 44.1 4.73719 43.968 5.12119 43.704C5.51319 43.44 5.70919 43.08 5.70919 42.624C5.70919 42.152 5.53719 41.788 5.19319 41.532C4.85719 41.268 4.39719 41.136 3.81319 41.136H2.96119C2.88119 41.136 2.81319 41.112 2.75719 41.064C2.70919 41.008 2.68519 40.94 2.68519 40.86V40.44C2.68519 40.352 2.70919 40.284 2.75719 40.236C2.81319 40.18 2.88119 40.152 2.96119 40.152H3.76519C4.27719 40.152 4.68119 40.04 4.97719 39.816C5.28119 39.592 5.43319 39.252 5.43319 38.796C5.43319 38.404 5.26919 38.092 4.94119 37.86C4.61319 37.62 4.20519 37.5 3.71719 37.5C3.21319 37.5 2.80119 37.592 2.48119 37.776C2.16119 37.96 1.96119 38.24 1.88119 38.616C1.84119 38.776 1.74519 38.856 1.59319 38.856H0.945188C0.873188 38.856 0.809188 38.832 0.753188 38.784C0.705188 38.736 0.685188 38.676 0.693188 38.604C0.749188 37.964 1.03719 37.452 1.55719 37.068C2.07719 36.676 2.80519 36.48 3.74119 36.48C4.34919 36.48 4.86919 36.584 5.30119 36.792C5.74119 37 6.06919 37.276 6.28519 37.62C6.50919 37.964 6.62119 38.336 6.62119 38.736C6.62119 39.592 6.30119 40.208 5.66119 40.584C6.07719 40.792 6.38919 41.076 6.59719 41.436C6.80519 41.788 6.90919 42.192 6.90919 42.648C6.90919 43.136 6.77719 43.568 6.51319 43.944C6.24919 44.312 5.87319 44.6 5.38519 44.808C4.90519 45.016 4.34119 45.12 3.69319 45.12ZM10.1983 45.12C9.80631 45.12 9.44231 45.04 9.10631 44.88C8.77031 44.72 8.50231 44.504 8.30231 44.232C8.11031 43.952 8.01431 43.644 8.01431 43.308C8.01431 42.78 8.23031 42.348 8.66231 42.012C9.10231 41.668 9.69431 41.444 10.4383 41.34L12.2263 41.088V40.74C12.2263 39.924 11.7583 39.516 10.8223 39.516C10.4703 39.516 10.1823 39.592 9.95831 39.744C9.73431 39.888 9.56631 40.06 9.45431 40.26C9.43031 40.332 9.39831 40.384 9.35831 40.416C9.32631 40.448 9.27831 40.464 9.21431 40.464H8.69831C8.62631 40.464 8.56231 40.44 8.50631 40.392C8.45831 40.336 8.43431 40.272 8.43431 40.2C8.44231 40.008 8.53031 39.792 8.69831 39.552C8.87431 39.304 9.14231 39.092 9.50231 38.916C9.86231 38.732 10.3063 38.64 10.8343 38.64C11.7303 38.64 12.3743 38.852 12.7663 39.276C13.1583 39.692 13.3543 40.212 13.3543 40.836V44.724C13.3543 44.804 13.3263 44.872 13.2703 44.928C13.2223 44.976 13.1583 45 13.0783 45H12.5263C12.4463 45 12.3783 44.976 12.3223 44.928C12.2743 44.872 12.2503 44.804 12.2503 44.724V44.208C12.0743 44.464 11.8183 44.68 11.4823 44.856C11.1463 45.032 10.7183 45.12 10.1983 45.12ZM10.4503 44.22C10.9703 44.22 11.3943 44.052 11.7223 43.716C12.0583 43.372 12.2263 42.88 12.2263 42.24V41.904L10.8343 42.108C10.2663 42.188 9.83831 42.324 9.55031 42.516C9.26231 42.7 9.11831 42.936 9.11831 43.224C9.11831 43.544 9.25031 43.792 9.51431 43.968C9.77831 44.136 10.0903 44.22 10.4503 44.22ZM20.2874 44.652C20.3274 44.7 20.3474 44.752 20.3474 44.808C20.3474 44.864 20.3234 44.912 20.2754 44.952C20.2354 44.984 20.1794 45 20.1074 45H19.3754C19.2474 45 19.1434 44.94 19.0634 44.82L17.3234 42.312H16.1954V44.724C16.1954 44.804 16.1674 44.872 16.1114 44.928C16.0634 44.976 15.9994 45 15.9194 45H15.3554C15.2754 45 15.2074 44.976 15.1514 44.928C15.1034 44.872 15.0794 44.804 15.0794 44.724V39.036C15.0794 38.956 15.1034 38.892 15.1514 38.844C15.2074 38.788 15.2754 38.76 15.3554 38.76H15.9194C15.9994 38.76 16.0634 38.788 16.1114 38.844C16.1674 38.892 16.1954 38.956 16.1954 39.036V41.34H17.2994L18.9074 38.94C19.0034 38.82 19.1114 38.76 19.2314 38.76H19.8554C19.9274 38.76 19.9874 38.78 20.0354 38.82C20.0834 38.852 20.1074 38.896 20.1074 38.952C20.1074 38.992 20.0874 39.04 20.0474 39.096L18.2594 41.748L20.2874 44.652ZM23.253 45.12C22.861 45.12 22.497 45.04 22.161 44.88C21.825 44.72 21.557 44.504 21.357 44.232C21.165 43.952 21.069 43.644 21.069 43.308C21.069 42.78 21.285 42.348 21.717 42.012C22.157 41.668 22.749 41.444 23.493 41.34L25.281 41.088V40.74C25.281 39.924 24.813 39.516 23.877 39.516C23.525 39.516 23.237 39.592 23.013 39.744C22.789 39.888 22.621 40.06 22.509 40.26C22.485 40.332 22.453 40.384 22.413 40.416C22.381 40.448 22.333 40.464 22.269 40.464H21.753C21.681 40.464 21.617 40.44 21.561 40.392C21.513 40.336 21.489 40.272 21.489 40.2C21.497 40.008 21.585 39.792 21.753 39.552C21.929 39.304 22.197 39.092 22.557 38.916C22.917 38.732 23.361 38.64 23.889 38.64C24.785 38.64 25.429 38.852 25.821 39.276C26.213 39.692 26.409 40.212 26.409 40.836V44.724C26.409 44.804 26.381 44.872 26.325 44.928C26.277 44.976 26.213 45 26.133 45H25.581C25.501 45 25.433 44.976 25.377 44.928C25.329 44.872 25.305 44.804 25.305 44.724V44.208C25.129 44.464 24.873 44.68 24.537 44.856C24.201 45.032 23.773 45.12 23.253 45.12ZM23.505 44.22C24.025 44.22 24.449 44.052 24.777 43.716C25.113 43.372 25.281 42.88 25.281 42.24V41.904L23.889 42.108C23.321 42.188 22.893 42.324 22.605 42.516C22.317 42.7 22.173 42.936 22.173 43.224C22.173 43.544 22.305 43.792 22.569 43.968C22.833 44.136 23.145 44.22 23.505 44.22ZM30.3061 45.12C29.7221 45.12 29.2381 45.028 28.8541 44.844C28.4781 44.66 28.2021 44.436 28.0261 44.172C27.8581 43.908 27.7701 43.648 27.7621 43.392V43.368C27.7621 43.304 27.7861 43.252 27.8341 43.212C27.8821 43.172 27.9381 43.152 28.0021 43.152H28.5661C28.7101 43.152 28.8061 43.228 28.8541 43.38C28.9421 43.684 29.1141 43.9 29.3701 44.028C29.6341 44.148 29.9781 44.208 30.4021 44.208C30.8101 44.208 31.1461 44.124 31.4101 43.956C31.6741 43.788 31.8061 43.54 31.8061 43.212C31.8061 42.876 31.7101 42.628 31.5181 42.468C31.3341 42.3 31.0461 42.216 30.6541 42.216H29.9941C29.9221 42.216 29.8621 42.192 29.8141 42.144C29.7661 42.096 29.7421 42.032 29.7421 41.952V41.628C29.7421 41.548 29.7661 41.484 29.8141 41.436C29.8621 41.388 29.9221 41.364 29.9941 41.364H30.5821C31.2621 41.364 31.6021 41.096 31.6021 40.56C31.6021 40.272 31.4981 40.032 31.2901 39.84C31.0901 39.648 30.7621 39.552 30.3061 39.552C29.8661 39.552 29.5461 39.628 29.3461 39.78C29.1541 39.924 29.0141 40.156 28.9261 40.476C28.8941 40.556 28.8541 40.616 28.8061 40.656C28.7661 40.688 28.7061 40.704 28.6261 40.704H28.0861C28.0141 40.704 27.9541 40.684 27.9061 40.644C27.8581 40.596 27.8341 40.54 27.8341 40.476C27.8421 40.148 27.9381 39.844 28.1221 39.564C28.3061 39.284 28.5821 39.06 28.9501 38.892C29.3181 38.724 29.7701 38.64 30.3061 38.64C30.8661 38.64 31.3261 38.728 31.6861 38.904C32.0461 39.08 32.3061 39.3 32.4661 39.564C32.6261 39.828 32.7061 40.104 32.7061 40.392C32.7061 40.72 32.6501 40.988 32.5381 41.196C32.4341 41.396 32.2421 41.564 31.9621 41.7C32.3061 41.828 32.5501 42.028 32.6941 42.3C32.8461 42.572 32.9221 42.904 32.9221 43.296C32.9221 43.88 32.6821 44.332 32.2021 44.652C31.7221 44.964 31.0901 45.12 30.3061 45.12ZM34.5507 45C34.4707 45 34.4027 44.976 34.3467 44.928C34.2987 44.872 34.2747 44.804 34.2747 44.724V39.036C34.2747 38.956 34.2987 38.892 34.3467 38.844C34.4027 38.788 34.4707 38.76 34.5507 38.76H35.1267C35.2067 38.76 35.2707 38.788 35.3187 38.844C35.3747 38.892 35.4027 38.956 35.4027 39.036V40.8H36.6507C37.4427 40.8 38.0307 40.988 38.4147 41.364C38.8067 41.732 39.0027 42.256 39.0027 42.936C39.0027 43.64 38.7947 44.16 38.3787 44.496C37.9707 44.832 37.3467 45 36.5067 45H34.5507ZM40.1307 45C40.0507 45 39.9827 44.976 39.9267 44.928C39.8787 44.872 39.8547 44.804 39.8547 44.724V39.036C39.8547 38.956 39.8787 38.892 39.9267 38.844C39.9827 38.788 40.0507 38.76 40.1307 38.76H40.7067C40.7867 38.76 40.8507 38.788 40.8987 38.844C40.9547 38.892 40.9827 38.956 40.9827 39.036V44.724C40.9827 44.804 40.9547 44.872 40.8987 44.928C40.8507 44.976 40.7867 45 40.7067 45H40.1307ZM36.5427 44.1C37.0387 44.1 37.3947 44.012 37.6107 43.836C37.8347 43.66 37.9467 43.36 37.9467 42.936C37.9467 42.512 37.8347 42.2 37.6107 42C37.3947 41.8 37.0387 41.7 36.5427 41.7H35.3907V44.1H36.5427Z" fill="#414141"/>
</svg>
