<svg width="49" height="54" viewBox="0 0 49 54" fill="none" xmlns="http://www.w3.org/2000/svg">
<path fill-rule="evenodd" clip-rule="evenodd" d="M18 25C18 23.6193 19.1193 22.5 20.5 22.5C21.8807 22.5 23 23.6193 23 25C23 26.3807 21.8807 27.5 20.5 27.5C19.1193 27.5 18 26.3807 18 25ZM20.5 23.5C19.6716 23.5 19 24.1716 19 25C19 25.8284 19.6716 26.5 20.5 26.5C21.3284 26.5 22 25.8284 22 25C22 24.1716 21.3284 23.5 20.5 23.5Z" fill="#414141"/>
<path fill-rule="evenodd" clip-rule="evenodd" d="M30 25C30 23.6193 31.1193 22.5 32.5 22.5C33.8807 22.5 35 23.6193 35 25C35 26.3807 33.8807 27.5 32.5 27.5C31.1193 27.5 30 26.3807 30 25ZM32.5 23.5C31.6716 23.5 31 24.1716 31 25C31 25.8284 31.6716 26.5 32.5 26.5C33.3284 26.5 34 25.8284 34 25C34 24.1716 33.3284 23.5 32.5 23.5Z" fill="#414141"/>
<path fill-rule="evenodd" clip-rule="evenodd" d="M13.5 4.5C13.2239 4.5 13 4.72386 13 5C13 5.27614 13.2239 5.5 13.5 5.5H17.0805C17.8378 9.79147 18.6033 14.0643 19.2493 18.3709C19.4329 19.5947 20.4842 20.5 21.7217 20.5H31.8597C33.0514 20.5 34.0774 19.6588 34.3111 18.4903L35.7503 11.2942C35.936 10.366 35.226 9.5 34.2795 9.5H19.6605C19.3575 9.5 19.078 9.58901 18.8444 9.74093L17.9924 4.91311C17.9502 4.67418 17.7426 4.5 17.5 4.5H13.5ZM19.166 11.0742C19.1207 10.7719 19.3548 10.5 19.6605 10.5H34.2795C34.595 10.5 34.8316 10.7887 34.7698 11.0981L33.3305 18.2942C33.1903 18.9953 32.5747 19.5 31.8597 19.5H21.7217C20.9792 19.5 20.3484 18.9568 20.2382 18.2225L19.166 11.0742Z" fill="#414141"/>
<rect x="24.3599" width="11.28" height="11" rx="4" fill="#FF6633"/>
<path d="M30.8799 9C30.8132 9 30.7565 8.98 30.7099 8.94C30.6699 8.89333 30.6499 8.83667 30.6499 8.77V3.17L28.9899 4.45C28.9432 4.49 28.8932 4.51 28.8399 4.51C28.7799 4.51 28.7232 4.47667 28.6699 4.41L28.4099 4.08C28.3765 4.03333 28.3599 3.98667 28.3599 3.94C28.3599 3.86 28.3932 3.79667 28.4599 3.75L30.6399 2.07C30.7132 2.02333 30.7999 2 30.8999 2H31.4099C31.4765 2 31.5299 2.02333 31.5699 2.07C31.6165 2.11 31.6399 2.16333 31.6399 2.23V8.77C31.6399 8.83667 31.6165 8.89333 31.5699 8.94C31.5299 8.98 31.4765 9 31.4099 9H30.8799Z" fill="white"/>
<path d="M7.31886 48.58C7.34286 48.612 7.35486 48.656 7.35486 48.712C7.35486 48.792 7.32686 48.86 7.27086 48.916C7.22286 48.972 7.15886 49 7.07886 49H6.39486C6.31486 49 6.25086 48.984 6.20286 48.952C6.16286 48.92 6.12286 48.876 6.08286 48.82L3.77886 45.28H2.35086V48.724C2.35086 48.804 2.32286 48.872 2.26686 48.928C2.21086 48.976 2.14286 49 2.06286 49H1.45086C1.37086 49 1.30286 48.976 1.24686 48.928C1.19886 48.872 1.17486 48.804 1.17486 48.724V40.888C1.17486 40.8 1.19886 40.732 1.24686 40.684C1.30286 40.628 1.37086 40.6 1.45086 40.6H2.06286C2.15086 40.6 2.21886 40.628 2.26686 40.684C2.32286 40.732 2.35086 40.8 2.35086 40.888V44.2L3.71886 44.212L5.84286 40.792C5.92286 40.664 6.05886 40.6 6.25086 40.6H6.89886C7.06686 40.6 7.15086 40.68 7.15086 40.84C7.15086 40.88 7.13086 40.932 7.09086 40.996L4.78686 44.668L7.31886 48.58ZM10.8874 49.12C10.0074 49.12 9.32336 48.872 8.83536 48.376C8.35536 47.88 8.09936 47.22 8.06736 46.396L8.05536 45.88L8.06736 45.364C8.09936 44.548 8.35936 43.892 8.84736 43.396C9.33536 42.892 10.0154 42.64 10.8874 42.64C11.7594 42.64 12.4394 42.892 12.9274 43.396C13.4154 43.892 13.6754 44.548 13.7074 45.364C13.7154 45.452 13.7194 45.624 13.7194 45.88C13.7194 46.136 13.7154 46.308 13.7074 46.396C13.6754 47.22 13.4154 47.88 12.9274 48.376C12.4474 48.872 11.7674 49.12 10.8874 49.12ZM10.8874 48.196C11.3914 48.196 11.7874 48.036 12.0754 47.716C12.3714 47.396 12.5314 46.936 12.5554 46.336C12.5634 46.256 12.5674 46.104 12.5674 45.88C12.5674 45.656 12.5634 45.504 12.5554 45.424C12.5314 44.824 12.3714 44.364 12.0754 44.044C11.7874 43.724 11.3914 43.564 10.8874 43.564C10.3834 43.564 9.98336 43.724 9.68736 44.044C9.39136 44.364 9.23536 44.824 9.21936 45.424L9.20736 45.88L9.21936 46.336C9.23536 46.936 9.39136 47.396 9.68736 47.716C9.98336 48.036 10.3834 48.196 10.8874 48.196ZM15.51 51.28C15.43 51.28 15.362 51.252 15.306 51.196C15.258 51.148 15.234 51.084 15.234 51.004V43.036C15.234 42.956 15.258 42.892 15.306 42.844C15.362 42.788 15.43 42.76 15.51 42.76H16.062C16.142 42.76 16.206 42.788 16.254 42.844C16.31 42.892 16.338 42.956 16.338 43.036V43.564C16.786 42.948 17.442 42.64 18.306 42.64C19.146 42.64 19.774 42.904 20.19 43.432C20.614 43.96 20.842 44.64 20.874 45.472C20.882 45.56 20.886 45.696 20.886 45.88C20.886 46.064 20.882 46.2 20.874 46.288C20.842 47.112 20.614 47.792 20.19 48.328C19.766 48.856 19.138 49.12 18.306 49.12C17.474 49.12 16.826 48.82 16.362 48.22V51.004C16.362 51.084 16.338 51.148 16.29 51.196C16.242 51.252 16.178 51.28 16.098 51.28H15.51ZM18.054 48.148C18.622 48.148 19.034 47.972 19.29 47.62C19.554 47.268 19.698 46.804 19.722 46.228C19.73 46.148 19.734 46.032 19.734 45.88C19.734 44.368 19.174 43.612 18.054 43.612C17.502 43.612 17.086 43.796 16.806 44.164C16.534 44.524 16.386 44.956 16.362 45.46L16.35 45.916L16.362 46.384C16.378 46.856 16.53 47.268 16.818 47.62C17.106 47.972 17.518 48.148 18.054 48.148ZM24.5424 49.12C23.9584 49.12 23.4744 49.028 23.0904 48.844C22.7144 48.66 22.4384 48.436 22.2624 48.172C22.0944 47.908 22.0064 47.648 21.9984 47.392V47.368C21.9984 47.304 22.0224 47.252 22.0704 47.212C22.1184 47.172 22.1744 47.152 22.2384 47.152H22.8024C22.9464 47.152 23.0424 47.228 23.0904 47.38C23.1784 47.684 23.3504 47.9 23.6064 48.028C23.8704 48.148 24.2144 48.208 24.6384 48.208C25.0464 48.208 25.3824 48.124 25.6464 47.956C25.9104 47.788 26.0424 47.54 26.0424 47.212C26.0424 46.876 25.9464 46.628 25.7544 46.468C25.5704 46.3 25.2824 46.216 24.8904 46.216H24.2304C24.1584 46.216 24.0984 46.192 24.0504 46.144C24.0024 46.096 23.9784 46.032 23.9784 45.952V45.628C23.9784 45.548 24.0024 45.484 24.0504 45.436C24.0984 45.388 24.1584 45.364 24.2304 45.364H24.8184C25.4984 45.364 25.8384 45.096 25.8384 44.56C25.8384 44.272 25.7344 44.032 25.5264 43.84C25.3264 43.648 24.9984 43.552 24.5424 43.552C24.1024 43.552 23.7824 43.628 23.5824 43.78C23.3904 43.924 23.2504 44.156 23.1624 44.476C23.1304 44.556 23.0904 44.616 23.0424 44.656C23.0024 44.688 22.9424 44.704 22.8624 44.704H22.3224C22.2504 44.704 22.1904 44.684 22.1424 44.644C22.0944 44.596 22.0704 44.54 22.0704 44.476C22.0784 44.148 22.1744 43.844 22.3584 43.564C22.5424 43.284 22.8184 43.06 23.1864 42.892C23.5544 42.724 24.0064 42.64 24.5424 42.64C25.1024 42.64 25.5624 42.728 25.9224 42.904C26.2824 43.08 26.5424 43.3 26.7024 43.564C26.8624 43.828 26.9424 44.104 26.9424 44.392C26.9424 44.72 26.8864 44.988 26.7744 45.196C26.6704 45.396 26.4784 45.564 26.1984 45.7C26.5424 45.828 26.7864 46.028 26.9304 46.3C27.0824 46.572 27.1584 46.904 27.1584 47.296C27.1584 47.88 26.9184 48.332 26.4384 48.652C25.9584 48.964 25.3264 49.12 24.5424 49.12ZM33.815 42.76C33.879 42.76 33.935 42.784 33.983 42.832C34.039 42.88 34.067 42.936 34.067 43V48.724C34.067 48.804 34.039 48.872 33.983 48.928C33.935 48.976 33.871 49 33.791 49H33.227C33.147 49 33.079 48.976 33.023 48.928C32.975 48.872 32.951 48.804 32.951 48.724V44.368L29.627 48.82C29.539 48.94 29.435 49 29.315 49H28.775C28.703 49 28.639 48.976 28.583 48.928C28.535 48.872 28.511 48.812 28.511 48.748V43.036C28.511 42.956 28.535 42.892 28.583 42.844C28.639 42.788 28.707 42.76 28.787 42.76H29.363C29.443 42.76 29.507 42.788 29.555 42.844C29.611 42.892 29.639 42.956 29.639 43.036V47.368L32.951 42.94C33.039 42.82 33.143 42.76 33.263 42.76H33.815ZM36.0995 49C36.0195 49 35.9515 48.976 35.8955 48.928C35.8475 48.872 35.8235 48.804 35.8235 48.724V43.036C35.8235 42.956 35.8475 42.892 35.8955 42.844C35.9515 42.788 36.0195 42.76 36.0995 42.76H36.6755C36.7555 42.76 36.8195 42.788 36.8675 42.844C36.9235 42.892 36.9515 42.956 36.9515 43.036V45.34H40.2155V43.036C40.2155 42.956 40.2395 42.892 40.2875 42.844C40.3435 42.788 40.4115 42.76 40.4915 42.76H41.0555C41.1355 42.76 41.1995 42.788 41.2475 42.844C41.3035 42.892 41.3315 42.956 41.3315 43.036V48.724C41.3315 48.804 41.3035 48.872 41.2475 48.928C41.1995 48.976 41.1355 49 41.0555 49H40.4915C40.4115 49 40.3435 48.976 40.2875 48.928C40.2395 48.872 40.2155 48.804 40.2155 48.724V46.3H36.9515V48.724C36.9515 48.804 36.9235 48.872 36.8675 48.928C36.8195 48.976 36.7555 49 36.6755 49H36.0995ZM44.876 49.12C44.484 49.12 44.12 49.04 43.784 48.88C43.448 48.72 43.18 48.504 42.98 48.232C42.788 47.952 42.692 47.644 42.692 47.308C42.692 46.78 42.908 46.348 43.34 46.012C43.78 45.668 44.372 45.444 45.116 45.34L46.904 45.088V44.74C46.904 43.924 46.436 43.516 45.5 43.516C45.148 43.516 44.86 43.592 44.636 43.744C44.412 43.888 44.244 44.06 44.132 44.26C44.108 44.332 44.076 44.384 44.036 44.416C44.004 44.448 43.956 44.464 43.892 44.464H43.376C43.304 44.464 43.24 44.44 43.184 44.392C43.136 44.336 43.112 44.272 43.112 44.2C43.12 44.008 43.208 43.792 43.376 43.552C43.552 43.304 43.82 43.092 44.18 42.916C44.54 42.732 44.984 42.64 45.512 42.64C46.408 42.64 47.052 42.852 47.444 43.276C47.836 43.692 48.032 44.212 48.032 44.836V48.724C48.032 48.804 48.004 48.872 47.948 48.928C47.9 48.976 47.836 49 47.756 49H47.204C47.124 49 47.056 48.976 47 48.928C46.952 48.872 46.928 48.804 46.928 48.724V48.208C46.752 48.464 46.496 48.68 46.16 48.856C45.824 49.032 45.396 49.12 44.876 49.12ZM45.128 48.22C45.648 48.22 46.072 48.052 46.4 47.716C46.736 47.372 46.904 46.88 46.904 46.24V45.904L45.512 46.108C44.944 46.188 44.516 46.324 44.228 46.516C43.94 46.7 43.796 46.936 43.796 47.224C43.796 47.544 43.928 47.792 44.192 47.968C44.456 48.136 44.768 48.22 45.128 48.22Z" fill="#414141"/>
</svg>
