<svg width="65" height="50" viewBox="0 0 65 50" fill="none" xmlns="http://www.w3.org/2000/svg">
<path fill-rule="evenodd" clip-rule="evenodd" d="M33.2046 4.25644C34.3299 3.13067 35.8564 2.49817 37.4482 2.49817C39.0399 2.49817 40.5664 3.13063 41.6916 4.25636C42.8174 5.38164 43.45 6.90829 43.45 8.49999C43.45 10.0917 42.8175 11.6183 41.6917 12.7435C41.6917 12.7436 41.6917 12.7435 41.6917 12.7435L32.8517 21.5835C32.6565 21.7788 32.3399 21.7788 32.1446 21.5835L23.3046 12.7435C20.961 10.3999 20.961 6.60009 23.3046 4.25644C25.6483 1.91279 29.4481 1.91279 31.7917 4.25644L32.4982 4.96289L33.2046 4.25644C33.2046 4.25641 33.2046 4.25647 33.2046 4.25644ZM37.4482 3.49817C36.1217 3.49817 34.8496 4.02528 33.9118 4.96346L32.8517 6.02355C32.758 6.11732 32.6308 6.16999 32.4982 6.16999C32.3656 6.16999 32.2384 6.11732 32.1446 6.02355L31.0846 4.96355C29.1315 3.01042 25.9648 3.01042 24.0117 4.96355C22.0586 6.91667 22.0586 10.0833 24.0117 12.0364L32.4982 20.5229L40.9846 12.0364C41.9228 11.0987 42.45 9.82648 42.45 8.49999C42.45 7.17351 41.9229 5.90138 40.9847 4.96363C40.0469 4.02544 38.7747 3.49817 37.4482 3.49817Z" fill="#414141"/>
<path d="M1.81023 45C1.73023 45 1.66223 44.976 1.60623 44.928C1.55823 44.872 1.53423 44.8 1.53423 44.712V36.888C1.53423 36.8 1.55823 36.732 1.60623 36.684C1.66223 36.628 1.73023 36.6 1.81023 36.6H2.43423C2.51423 36.6 2.57823 36.628 2.62623 36.684C2.68223 36.74 2.71023 36.808 2.71023 36.888V43.092L7.18623 36.768C7.25023 36.656 7.35023 36.6 7.48623 36.6H8.07423C8.15423 36.6 8.21823 36.628 8.26623 36.684C8.32223 36.732 8.35023 36.8 8.35023 36.888V44.724C8.35023 44.804 8.32223 44.872 8.26623 44.928C8.21823 44.976 8.15423 45 8.07423 45H7.46223C7.38223 45 7.31423 44.976 7.25823 44.928C7.20223 44.872 7.17423 44.804 7.17423 44.724V38.568L2.71023 44.832C2.64623 44.944 2.54623 45 2.41023 45H1.81023ZM12.4565 45.12C11.8725 45.12 11.3885 45.028 11.0045 44.844C10.6285 44.66 10.3525 44.436 10.1765 44.172C10.0085 43.908 9.92048 43.648 9.91248 43.392V43.368C9.91248 43.304 9.93648 43.252 9.98448 43.212C10.0325 43.172 10.0885 43.152 10.1525 43.152H10.7165C10.8605 43.152 10.9565 43.228 11.0045 43.38C11.0925 43.684 11.2645 43.9 11.5205 44.028C11.7845 44.148 12.1285 44.208 12.5525 44.208C12.9605 44.208 13.2965 44.124 13.5605 43.956C13.8245 43.788 13.9565 43.54 13.9565 43.212C13.9565 42.876 13.8605 42.628 13.6685 42.468C13.4845 42.3 13.1965 42.216 12.8045 42.216H12.1445C12.0725 42.216 12.0125 42.192 11.9645 42.144C11.9165 42.096 11.8925 42.032 11.8925 41.952V41.628C11.8925 41.548 11.9165 41.484 11.9645 41.436C12.0125 41.388 12.0725 41.364 12.1445 41.364H12.7325C13.4125 41.364 13.7525 41.096 13.7525 40.56C13.7525 40.272 13.6485 40.032 13.4405 39.84C13.2405 39.648 12.9125 39.552 12.4565 39.552C12.0165 39.552 11.6965 39.628 11.4965 39.78C11.3045 39.924 11.1645 40.156 11.0765 40.476C11.0445 40.556 11.0045 40.616 10.9565 40.656C10.9165 40.688 10.8565 40.704 10.7765 40.704H10.2365C10.1645 40.704 10.1045 40.684 10.0565 40.644C10.0085 40.596 9.98448 40.54 9.98448 40.476C9.99248 40.148 10.0885 39.844 10.2725 39.564C10.4565 39.284 10.7325 39.06 11.1005 38.892C11.4685 38.724 11.9205 38.64 12.4565 38.64C13.0165 38.64 13.4765 38.728 13.8365 38.904C14.1965 39.08 14.4565 39.3 14.6165 39.564C14.7765 39.828 14.8565 40.104 14.8565 40.392C14.8565 40.72 14.8005 40.988 14.6885 41.196C14.5845 41.396 14.3925 41.564 14.1125 41.7C14.4565 41.828 14.7005 42.028 14.8445 42.3C14.9965 42.572 15.0725 42.904 15.0725 43.296C15.0725 43.88 14.8325 44.332 14.3525 44.652C13.8725 44.964 13.2405 45.12 12.4565 45.12ZM21.8851 41.736C21.8931 41.816 21.8971 41.944 21.8971 42.12C21.8971 42.272 21.8931 42.38 21.8851 42.444C21.8531 43.252 21.5931 43.9 21.1051 44.388C20.6251 44.876 19.9451 45.12 19.0651 45.12C18.1611 45.12 17.4731 44.864 17.0011 44.352C16.5291 43.84 16.2771 43.136 16.2451 42.24L16.2331 41.52L16.2451 40.8C16.2531 39.656 16.4051 38.8 16.7011 38.232C17.0051 37.656 17.4331 37.244 17.9851 36.996C18.5451 36.74 19.4491 36.448 20.6971 36.12L20.9851 36.048L21.0451 36.036C21.1091 36.036 21.1651 36.06 21.2131 36.108C21.2691 36.148 21.3011 36.196 21.3091 36.252L21.4051 36.744L21.4171 36.816C21.4171 36.872 21.3971 36.92 21.3571 36.96C21.3251 37 21.2771 37.028 21.2131 37.044L20.6131 37.188C19.6931 37.412 19.0331 37.604 18.6331 37.764C18.2331 37.924 17.9211 38.176 17.6971 38.52C17.4811 38.856 17.3611 39.36 17.3371 40.032C17.5291 39.744 17.8011 39.512 18.1531 39.336C18.5051 39.152 18.8771 39.06 19.2691 39.06C20.0771 39.06 20.7051 39.308 21.1531 39.804C21.6091 40.292 21.8531 40.936 21.8851 41.736ZM20.7331 42.396C20.7411 42.34 20.7451 42.248 20.7451 42.12C20.7451 41.976 20.7411 41.868 20.7331 41.796C20.7171 41.212 20.5651 40.76 20.2771 40.44C19.9971 40.112 19.6291 39.948 19.1731 39.948C18.6611 39.948 18.2411 40.112 17.9131 40.44C17.5931 40.76 17.4211 41.212 17.3971 41.796L17.3851 42.12L17.3971 42.396C17.4211 42.988 17.5811 43.444 17.8771 43.764C18.1731 44.076 18.5691 44.232 19.0651 44.232C19.5691 44.232 19.9691 44.076 20.2651 43.764C20.5611 43.444 20.7171 42.988 20.7331 42.396ZM23.6858 47.28C23.6058 47.28 23.5378 47.252 23.4818 47.196C23.4338 47.148 23.4098 47.084 23.4098 47.004V39.036C23.4098 38.956 23.4338 38.892 23.4818 38.844C23.5378 38.788 23.6058 38.76 23.6858 38.76H24.2378C24.3178 38.76 24.3818 38.788 24.4298 38.844C24.4858 38.892 24.5138 38.956 24.5138 39.036V39.564C24.9618 38.948 25.6178 38.64 26.4818 38.64C27.3218 38.64 27.9498 38.904 28.3658 39.432C28.7898 39.96 29.0178 40.64 29.0498 41.472C29.0578 41.56 29.0618 41.696 29.0618 41.88C29.0618 42.064 29.0578 42.2 29.0498 42.288C29.0178 43.112 28.7898 43.792 28.3658 44.328C27.9418 44.856 27.3138 45.12 26.4818 45.12C25.6498 45.12 25.0018 44.82 24.5378 44.22V47.004C24.5378 47.084 24.5138 47.148 24.4658 47.196C24.4178 47.252 24.3538 47.28 24.2738 47.28H23.6858ZM26.2298 44.148C26.7978 44.148 27.2098 43.972 27.4658 43.62C27.7298 43.268 27.8738 42.804 27.8978 42.228C27.9058 42.148 27.9098 42.032 27.9098 41.88C27.9098 40.368 27.3498 39.612 26.2298 39.612C25.6778 39.612 25.2618 39.796 24.9818 40.164C24.7098 40.524 24.5618 40.956 24.5378 41.46L24.5258 41.916L24.5378 42.384C24.5538 42.856 24.7058 43.268 24.9938 43.62C25.2818 43.972 25.6938 44.148 26.2298 44.148ZM32.2862 45.12C31.8942 45.12 31.5302 45.04 31.1942 44.88C30.8582 44.72 30.5902 44.504 30.3902 44.232C30.1982 43.952 30.1022 43.644 30.1022 43.308C30.1022 42.78 30.3182 42.348 30.7502 42.012C31.1902 41.668 31.7822 41.444 32.5262 41.34L34.3142 41.088V40.74C34.3142 39.924 33.8462 39.516 32.9102 39.516C32.5582 39.516 32.2702 39.592 32.0462 39.744C31.8222 39.888 31.6542 40.06 31.5422 40.26C31.5182 40.332 31.4862 40.384 31.4462 40.416C31.4142 40.448 31.3662 40.464 31.3022 40.464H30.7862C30.7142 40.464 30.6502 40.44 30.5942 40.392C30.5462 40.336 30.5222 40.272 30.5222 40.2C30.5302 40.008 30.6182 39.792 30.7862 39.552C30.9622 39.304 31.2302 39.092 31.5902 38.916C31.9502 38.732 32.3942 38.64 32.9222 38.64C33.8182 38.64 34.4622 38.852 34.8542 39.276C35.2462 39.692 35.4422 40.212 35.4422 40.836V44.724C35.4422 44.804 35.4142 44.872 35.3582 44.928C35.3102 44.976 35.2462 45 35.1662 45H34.6142C34.5342 45 34.4662 44.976 34.4102 44.928C34.3622 44.872 34.3382 44.804 34.3382 44.724V44.208C34.1622 44.464 33.9062 44.68 33.5702 44.856C33.2342 45.032 32.8062 45.12 32.2862 45.12ZM32.5382 44.22C33.0582 44.22 33.4822 44.052 33.8102 43.716C34.1462 43.372 34.3142 42.88 34.3142 42.24V41.904L32.9222 42.108C32.3542 42.188 31.9262 42.324 31.6382 42.516C31.3502 42.7 31.2062 42.936 31.2062 43.224C31.2062 43.544 31.3382 43.792 31.6022 43.968C31.8662 44.136 32.1782 44.22 32.5382 44.22ZM37.4433 45C37.3633 45 37.2953 44.976 37.2393 44.928C37.1913 44.872 37.1673 44.804 37.1673 44.724V39.036C37.1673 38.956 37.1913 38.892 37.2393 38.844C37.2953 38.788 37.3633 38.76 37.4433 38.76H38.0193C38.0993 38.76 38.1633 38.788 38.2113 38.844C38.2673 38.892 38.2953 38.956 38.2953 39.036V41.34H41.5593V39.036C41.5593 38.956 41.5833 38.892 41.6313 38.844C41.6873 38.788 41.7553 38.76 41.8353 38.76H42.3993C42.4793 38.76 42.5433 38.788 42.5913 38.844C42.6473 38.892 42.6753 38.956 42.6753 39.036V44.724C42.6753 44.804 42.6473 44.872 42.5913 44.928C42.5433 44.976 42.4793 45 42.3993 45H41.8353C41.7553 45 41.6873 44.976 41.6313 44.928C41.5833 44.872 41.5593 44.804 41.5593 44.724V42.3H38.2953V44.724C38.2953 44.804 38.2673 44.872 38.2113 44.928C38.1633 44.976 38.0993 45 38.0193 45H37.4433ZM44.7558 45C44.6758 45 44.6078 44.976 44.5518 44.928C44.5038 44.872 44.4798 44.804 44.4798 44.724V39.036C44.4798 38.956 44.5038 38.892 44.5518 38.844C44.6078 38.788 44.6758 38.76 44.7558 38.76H45.3318C45.4118 38.76 45.4758 38.788 45.5238 38.844C45.5798 38.892 45.6078 38.956 45.6078 39.036V41.34H48.8718V39.036C48.8718 38.956 48.8958 38.892 48.9438 38.844C48.9998 38.788 49.0678 38.76 49.1478 38.76H49.7118C49.7918 38.76 49.8558 38.788 49.9038 38.844C49.9598 38.892 49.9878 38.956 49.9878 39.036V44.724C49.9878 44.804 49.9598 44.872 49.9038 44.928C49.8558 44.976 49.7918 45 49.7118 45H49.1478C49.0678 45 48.9998 44.976 48.9438 44.928C48.8958 44.872 48.8718 44.804 48.8718 44.724V42.3H45.6078V44.724C45.6078 44.804 45.5798 44.872 45.5238 44.928C45.4758 44.976 45.4118 45 45.3318 45H44.7558ZM54.3483 45.12C53.4683 45.12 52.7843 44.872 52.2963 44.376C51.8163 43.88 51.5603 43.22 51.5283 42.396L51.5163 41.88L51.5283 41.364C51.5603 40.548 51.8203 39.892 52.3083 39.396C52.7963 38.892 53.4763 38.64 54.3483 38.64C55.2203 38.64 55.9003 38.892 56.3883 39.396C56.8763 39.892 57.1363 40.548 57.1683 41.364C57.1763 41.452 57.1803 41.624 57.1803 41.88C57.1803 42.136 57.1763 42.308 57.1683 42.396C57.1363 43.22 56.8763 43.88 56.3883 44.376C55.9083 44.872 55.2283 45.12 54.3483 45.12ZM54.3483 44.196C54.8523 44.196 55.2483 44.036 55.5363 43.716C55.8323 43.396 55.9923 42.936 56.0163 42.336C56.0243 42.256 56.0283 42.104 56.0283 41.88C56.0283 41.656 56.0243 41.504 56.0163 41.424C55.9923 40.824 55.8323 40.364 55.5363 40.044C55.2483 39.724 54.8523 39.564 54.3483 39.564C53.8443 39.564 53.4443 39.724 53.1483 40.044C52.8523 40.364 52.6963 40.824 52.6803 41.424L52.6683 41.88L52.6803 42.336C52.6963 42.936 52.8523 43.396 53.1483 43.716C53.4443 44.036 53.8443 44.196 54.3483 44.196ZM61.1789 45.12C60.3549 45.12 59.6949 44.868 59.1989 44.364C58.7109 43.852 58.4429 43.156 58.3949 42.276L58.3829 41.868L58.3949 41.472C58.4509 40.608 58.7229 39.92 59.2109 39.408C59.7069 38.896 60.3589 38.64 61.1669 38.64C62.0549 38.64 62.7429 38.924 63.2309 39.492C63.7189 40.052 63.9629 40.812 63.9629 41.772V41.976C63.9629 42.056 63.9349 42.124 63.8789 42.18C63.8309 42.228 63.7669 42.252 63.6869 42.252H59.5349V42.36C59.5589 42.88 59.7149 43.324 60.0029 43.692C60.2989 44.052 60.6869 44.232 61.1669 44.232C61.5349 44.232 61.8349 44.16 62.0669 44.016C62.3069 43.864 62.4829 43.708 62.5949 43.548C62.6669 43.452 62.7189 43.396 62.7509 43.38C62.7909 43.356 62.8589 43.344 62.9549 43.344H63.5429C63.6149 43.344 63.6749 43.364 63.7229 43.404C63.7709 43.444 63.7949 43.5 63.7949 43.572C63.7949 43.748 63.6829 43.96 63.4589 44.208C63.2429 44.456 62.9349 44.672 62.5349 44.856C62.1429 45.032 61.6909 45.12 61.1789 45.12ZM62.8229 41.424V41.388C62.8229 40.836 62.6709 40.388 62.3669 40.044C62.0709 39.692 61.6709 39.516 61.1669 39.516C60.6629 39.516 60.2629 39.692 59.9669 40.044C59.6789 40.388 59.5349 40.836 59.5349 41.388V41.424H62.8229Z" fill="#414141"/>
</svg>
